<?xml version="1.0" encoding="iso-8859-1"?>
<!-- Generator: Adobe Illustrator 19.0.0, SVG Export Plug-In . SVG Version: 6.00 Build 0)  -->
<svg xmlns="http://www.w3.org/2000/svg" xmlns:xlink="http://www.w3.org/1999/xlink" version="1.1" id="Capa_1" x="0px" y="0px" viewBox="0 0 512 512" style="enable-background:new 0 0 512 512;" xml:space="preserve" width="512px" height="512px">
<g>
	<g>
		<path d="M437.02,74.98C388.667,26.629,324.38,0,256,0S123.333,26.629,74.98,74.98C26.629,123.333,0,187.62,0,256    s26.629,132.667,74.98,181.02C123.333,485.371,187.62,512,256,512s132.667-26.629,181.02-74.98    C485.371,388.667,512,324.38,512,256S485.371,123.333,437.02,74.98z M30,256C30,131.383,131.383,30,256,30    c58.173,0,105.5,47.327,105.5,105.5c0,58.173-47.327,105.5-105.5,105.5c-74.715,0-135.5,60.785-135.5,135.5    c0,27.915,8.488,53.884,23.015,75.466C75.73,412.906,30,339.693,30,256z M256,482c-58.173,0-105.5-47.327-105.5-105.5    c0-58.173,47.327-105.5,105.5-105.5c74.715,0,135.5-60.785,135.5-135.5c0-27.915-8.488-53.884-23.015-75.466    C436.27,99.094,482,172.307,482,256C482,380.617,380.617,482,256,482z" fill="#FFFFFF"/>
	</g>
</g>
<g>
	<g>
		<path d="M256,88.83c-23.604,0-42.809,19.204-42.809,42.809c0,23.605,19.205,42.808,42.809,42.808s42.809-19.204,42.809-42.809    C298.809,108.033,279.604,88.83,256,88.83z M256,144.448c-7.063,0-12.809-5.746-12.809-12.809c0-7.063,5.747-12.809,12.809-12.809    c7.063,0,12.809,5.746,12.809,12.809C268.809,138.702,263.063,144.448,256,144.448z" fill="#FFFFFF"/>
	</g>
</g>
<g>
	<g>
		<path d="M256,337.553c-23.604,0-42.809,19.204-42.809,42.809S232.396,423.17,256,423.17s42.809-19.204,42.809-42.809    S279.604,337.553,256,337.553z M256,393.17c-7.063,0-12.809-5.746-12.809-12.809s5.746-12.809,12.809-12.809    s12.809,5.746,12.809,12.809S263.063,393.17,256,393.17z" fill="#FFFFFF"/>
	</g>
</g>
<g>
</g>
<g>
</g>
<g>
</g>
<g>
</g>
<g>
</g>
<g>
</g>
<g>
</g>
<g>
</g>
<g>
</g>
<g>
</g>
<g>
</g>
<g>
</g>
<g>
</g>
<g>
</g>
<g>
</g>
</svg>
